<svg width="771" height="687" viewBox="0 0 771 687" fill="none" xmlns="http://www.w3.org/2000/svg">
<g filter="url(#filter0_ddd_451_39477)">
<path d="M210.347 184.409C216.524 183.548 222.456 181.417 227.768 178.15C222.45 174.886 216.523 172.741 210.347 171.845C209.481 165.677 207.333 159.759 204.042 154.471C200.771 159.768 198.625 165.682 197.737 171.845C191.575 172.733 185.661 174.879 180.363 178.15C185.651 181.441 191.57 183.588 197.737 184.455C198.633 190.63 200.779 196.558 204.042 201.876C207.331 196.553 209.479 190.605 210.347 184.409Z" fill="white"/>
<path d="M566.47 467.205C572.652 466.329 578.583 464.182 583.891 460.9C578.57 457.652 572.644 455.52 566.47 454.641C565.61 448.457 563.463 442.521 560.165 437.221C556.888 442.532 554.741 448.463 553.859 454.641C547.702 455.512 541.786 457.644 536.486 460.9C541.776 464.19 547.694 466.337 553.859 467.205C554.741 473.384 556.888 479.315 560.165 484.626C563.463 479.323 565.61 473.389 566.47 467.205Z" fill="white"/>
<path d="M649 308.082C648.926 339.274 636.492 369.164 614.422 391.207C592.353 413.25 562.447 425.647 531.257 425.684H520.279V522.832H472.69L468.252 375.477C468.123 371.417 468.824 367.372 470.31 363.589C471.795 359.808 474.035 356.368 476.892 353.479L479.554 350.817C481.705 348.622 482.913 345.672 482.916 342.596V241.808C482.924 241.524 482.871 241.242 482.765 240.978C482.66 240.715 482.501 240.476 482.301 240.275C482.1 240.074 481.86 239.916 481.599 239.81C481.335 239.704 481.053 239.653 480.768 239.66C480.198 239.66 479.652 239.886 479.248 240.289C478.847 240.692 478.62 241.238 478.62 241.808V315.883C478.62 316.936 478.201 317.943 477.457 318.69C476.713 319.434 475.703 319.851 474.65 319.851C473.597 319.851 472.587 319.434 471.843 318.69C471.099 317.943 470.679 316.936 470.679 315.883V241.808C470.679 241.238 470.455 240.692 470.051 240.289C469.648 239.886 469.101 239.66 468.532 239.66C468.247 239.653 467.964 239.704 467.703 239.81C467.439 239.916 467.199 240.074 466.999 240.275C466.798 240.476 466.64 240.715 466.534 240.978C466.429 241.242 466.376 241.524 466.384 241.808V315.883C466.371 316.938 465.943 317.949 465.191 318.693C464.44 319.434 463.424 319.851 462.366 319.851C461.313 319.851 460.303 319.434 459.559 318.69C458.815 317.943 458.398 316.936 458.398 315.883V241.808C458.403 241.524 458.353 241.242 458.245 240.978C458.139 240.715 457.984 240.476 457.78 240.275C457.58 240.074 457.343 239.916 457.079 239.81C456.815 239.704 456.533 239.653 456.248 239.66C455.678 239.66 455.132 239.886 454.728 240.289C454.327 240.692 454.1 241.238 454.1 241.808V315.883C454.1 316.936 453.681 317.943 452.937 318.69C452.193 319.434 451.182 319.851 450.129 319.851C449.077 319.851 448.066 319.434 447.322 318.69C446.578 317.943 446.159 316.936 446.159 315.883V241.808C446.082 241.287 445.821 240.811 445.423 240.466C445.024 240.122 444.515 239.932 443.987 239.932C443.462 239.932 442.953 240.122 442.552 240.466C442.154 240.811 441.893 241.287 441.816 241.808V342.596C441.806 344.147 442.104 345.683 442.687 347.118C443.272 348.55 444.135 349.856 445.225 350.957L447.842 353.619C450.705 356.505 452.952 359.945 454.446 363.726C455.939 367.507 456.649 371.554 456.527 375.617L451.857 522.972H394.179L389.506 376.738C389.295 369.195 391.949 361.853 396.933 356.188C410.478 350.912 420.005 336.805 420.005 311.678C420.005 278.986 403.753 239.8 383.668 239.8C363.585 239.8 347.333 278.844 347.333 311.678C347.333 336.805 356.673 350.912 370.405 356.188C375.423 361.837 378.096 369.187 377.877 376.738L373.674 522.832H315.525C309.175 403.686 307.539 427.412 323.14 394.721C325.295 390.212 326.261 385.228 325.942 380.242C322.72 324.523 323.372 274.828 304.598 249.468C300.535 243.91 296.377 237.324 296.377 240.454C296.377 425.452 296.377 421.109 296.377 421.109C294.089 467.813 291.707 500.507 290.82 522.832H252.709V425.684H225.667C212.159 425.974 198.729 423.566 186.165 418.595C173.601 413.627 162.155 406.2 152.499 396.747C142.844 387.297 135.172 376.015 129.935 363.56C124.698 351.104 122 337.731 122 324.22C122 310.707 124.698 297.333 129.935 284.878C135.172 272.425 142.844 261.14 152.499 251.689C162.155 242.239 173.601 234.811 186.165 229.842C198.729 224.873 212.159 222.463 225.667 222.753C230.182 222.758 234.691 223.07 239.164 223.687C241.198 192.913 253.781 163.781 274.793 141.204C295.804 118.628 323.958 103.987 354.506 99.7519C385.055 95.5161 416.129 101.945 442.491 117.953C468.853 133.962 488.886 158.571 499.218 187.631C499.964 189.732 500.664 191.881 501.318 194.029C511.09 191.463 521.153 190.175 531.257 190.199H534.526L539.196 190.433C541.95 190.433 544.613 190.947 547.23 191.32L549.984 191.694L551.9 192.021L554.749 192.581L556.664 193.002C557.514 193.16 558.355 193.362 559.187 193.609C567.088 195.496 574.76 198.236 582.071 201.782L584.641 203.09C588.87 205.239 592.957 207.657 596.877 210.329L599.212 211.917L601.5 213.598C602.996 214.719 604.489 215.887 606.17 217.101C609.425 219.841 612.544 222.74 615.512 225.788L619.343 229.992C638.489 251.493 649.045 279.292 649 308.082Z" fill="white"/>
<g opacity="0.5">
<path opacity="0.5" d="M472.782 143.494C454.101 126.611 431.042 115.336 406.247 110.96C381.452 106.584 355.924 109.286 332.593 118.754C309.263 128.223 289.074 144.075 274.342 164.494C259.609 184.912 250.93 209.069 249.299 234.195C228.914 231.484 208.187 235.038 189.87 244.386C171.553 253.733 156.512 268.433 146.747 286.529C136.981 304.628 132.951 325.267 135.193 345.709C137.435 366.15 145.842 385.426 159.299 400.979C142.781 386.697 131.317 367.464 126.613 346.141C121.909 324.821 124.217 302.549 133.192 282.645C142.169 262.74 157.332 246.267 176.427 235.677C195.522 225.087 217.526 220.947 239.164 223.873C240.935 197.568 250.427 172.37 266.451 151.434C282.473 130.498 304.318 114.754 329.248 106.173C354.177 97.5926 381.083 96.5568 406.598 103.195C432.113 109.834 455.103 123.852 472.687 143.494H472.782Z" fill="#C4C4C4"/>
<path opacity="0.5" d="M619.436 230.179C586.227 200.708 547.37 195.056 504.775 206.359C504.028 203.884 502.627 198.699 501.319 194.216C522.404 188.667 544.619 189.091 565.48 195.442C586.338 201.793 605.02 213.82 619.436 230.179Z" fill="#C4C4C4"/>
</g>
</g>
<defs>
<filter id="filter0_ddd_451_39477" x="0.637787" y="0.864014" width="769.724" height="685.683" filterUnits="userSpaceOnUse" color-interpolation-filters="sRGB">
<feFlood flood-opacity="0" result="BackgroundImageFix"/>
<feColorMatrix in="SourceAlpha" type="matrix" values="0 0 0 0 0 0 0 0 0 0 0 0 0 0 0 0 0 0 127 0" result="hardAlpha"/>
<feOffset dy="29.0214"/>
<feGaussianBlur stdDeviation="19.7873"/>
<feColorMatrix type="matrix" values="0 0 0 0 0 0 0 0 0 0 0 0 0 0 0 0 0 0 0.1 0"/>
<feBlend mode="normal" in2="BackgroundImageFix" result="effect1_dropShadow_451_39477"/>
<feColorMatrix in="SourceAlpha" type="matrix" values="0 0 0 0 0 0 0 0 0 0 0 0 0 0 0 0 0 0 127 0" result="hardAlpha"/>
<feOffset dy="23.7448"/>
<feGaussianBlur stdDeviation="60.6811"/>
<feColorMatrix type="matrix" values="0 0 0 0 0 0 0 0 0 0 0 0 0 0 0 0 0 0 0.08 0"/>
<feBlend mode="normal" in2="effect1_dropShadow_451_39477" result="effect2_dropShadow_451_39477"/>
<feColorMatrix in="SourceAlpha" type="matrix" values="0 0 0 0 0 0 0 0 0 0 0 0 0 0 0 0 0 0 127 0" result="hardAlpha"/>
<feOffset dy="63.3194"/>
<feGaussianBlur stdDeviation="50.1279"/>
<feColorMatrix type="matrix" values="0 0 0 0 0 0 0 0 0 0 0 0 0 0 0 0 0 0 0.1 0"/>
<feBlend mode="normal" in2="effect2_dropShadow_451_39477" result="effect3_dropShadow_451_39477"/>
<feBlend mode="normal" in="SourceGraphic" in2="effect3_dropShadow_451_39477" result="shape"/>
</filter>
</defs>
</svg>
