<svg width="512" height="512" viewBox="0 0 512 512" fill="none" xmlns="http://www.w3.org/2000/svg">
<path d="M338.561 325.334L266.668 282.667V186.027C266.668 177.494 259.841 170.667 251.308 170.667H250.028C241.495 170.667 234.668 177.494 234.668 186.027V286.721C234.668 294.187 238.508 301.227 245.121 305.067L322.988 351.787C330.241 356.054 339.628 353.921 343.895 346.667C348.375 339.201 346.028 329.601 338.561 325.334V325.334ZM451.841 106.881L386.135 52.2674C377.175 44.8007 363.735 45.8674 356.055 55.0407C348.588 64.0007 349.868 77.4407 358.828 85.1207L424.321 139.734C433.281 147.201 446.721 146.134 454.401 136.961C462.081 128.001 460.801 114.561 451.841 106.881V106.881ZM87.4681 139.734L152.961 85.1207C162.135 77.4407 163.415 64.0007 155.735 55.0407C148.268 45.8674 134.828 44.8007 125.868 52.2674L60.1614 106.881C51.2014 114.561 49.9214 128.001 57.6014 136.961C65.0681 146.134 78.5081 147.201 87.4681 139.734ZM256.001 85.3341C149.975 85.3341 64.0014 171.307 64.0014 277.334C64.0014 383.361 149.975 469.334 256.001 469.334C362.028 469.334 448.001 383.361 448.001 277.334C448.001 171.307 362.028 85.3341 256.001 85.3341ZM256.001 426.667C173.655 426.667 106.668 359.681 106.668 277.334C106.668 194.987 173.655 128.001 256.001 128.001C338.348 128.001 405.335 194.987 405.335 277.334C405.335 359.681 338.348 426.667 256.001 426.667Z" fill="#8B8B8B"/>
</svg>
