<svg width="512" height="512" viewBox="0 0 512 512" fill="none" xmlns="http://www.w3.org/2000/svg">
<path fill-rule="evenodd" clip-rule="evenodd" d="M376.002 95.998H384.002C401.675 95.998 416.002 110.325 416.002 127.998V135.998C416.002 153.671 401.675 167.998 384.002 167.998H376.002C358.328 167.998 344.001 153.671 344.001 135.998V127.998C344.001 110.325 358.328 95.998 376.002 95.998ZM328.001 127.998C328.001 101.488 349.492 79.998 376.002 79.998H384.002C410.511 79.998 432.002 101.488 432.002 127.998V135.998C432.002 162.508 410.511 183.998 384.002 183.998H376.002C358.95 183.998 343.975 175.107 335.46 161.707L182.004 238.251C183.304 242.606 184.002 247.221 184.002 251.998V259.998C184.002 264.973 183.245 269.771 181.84 274.283L334.991 351.042C343.418 337.224 358.632 327.998 376.002 327.998H384.002C410.511 327.998 432.002 349.488 432.002 375.998V383.998C432.002 410.508 410.511 431.998 384.002 431.998H376.002C349.492 431.998 328.001 410.508 328.001 383.998V375.998C328.001 372.556 328.364 369.199 329.052 365.962L174.592 288.547C165.847 300.349 151.818 307.998 136.002 307.998H128.001C101.492 307.998 80.0015 286.508 80.0015 259.998V251.998C80.0015 225.488 101.492 203.998 128.001 203.998H136.001C152.019 203.998 166.205 211.844 174.924 223.902L329.251 146.924C328.434 143.414 328.001 139.757 328.001 135.998V127.998ZM376.002 343.998H384.002C401.675 343.998 416.002 358.325 416.002 375.998V383.998C416.002 401.671 401.675 415.998 384.002 415.998H376.002C358.328 415.998 344.001 401.671 344.001 383.998V375.998C344.001 358.325 358.328 343.998 376.002 343.998ZM136.001 219.998H128.001C110.328 219.998 96.0015 234.325 96.0015 251.998V259.998C96.0015 277.671 110.328 291.998 128.001 291.998H136.002C153.675 291.998 168.002 277.671 168.002 259.998V251.998C168.002 234.325 153.675 219.998 136.001 219.998Z" fill="#3F414E" stroke="#3F414E" stroke-width="2.7"/>
</svg>
