<svg width="512" height="512" viewBox="0 0 512 512" fill="none" xmlns="http://www.w3.org/2000/svg">
<path d="M218.666 277.334C218.666 292.054 206.72 304 192 304C177.28 304 165.333 292.054 165.333 277.334C165.333 262.614 177.28 250.667 192 250.667C206.72 250.667 218.666 262.614 218.666 277.334ZM320 250.667C305.28 250.667 293.333 262.614 293.333 277.334C293.333 292.054 305.28 304 320 304C334.72 304 346.666 292.054 346.666 277.334C346.666 262.614 334.72 250.667 320 250.667ZM469.333 256C469.333 373.76 373.76 469.334 256 469.334C138.24 469.334 42.6665 373.76 42.6665 256C42.6665 138.24 138.24 42.667 256 42.667C373.76 42.667 469.333 138.24 469.333 256ZM227.413 87.8937C257.28 137.387 311.466 170.667 373.333 170.667C383.146 170.667 392.746 169.6 401.92 168.107C372.053 118.614 317.866 85.3337 256 85.3337C246.186 85.3337 236.586 86.4003 227.413 87.8937ZM94.2932 202.027C130.773 181.334 158.933 147.627 172.373 107.307C135.893 128 107.733 161.707 94.2932 202.027ZM426.666 256C426.666 239.36 424.106 223.36 419.626 208.214C404.693 211.414 389.333 213.334 373.333 213.334C306.56 213.334 247.04 182.614 207.786 134.614C185.386 189.227 140.8 232.107 85.3332 253.014C85.5465 253.867 85.3332 254.934 85.3332 256C85.3332 350.08 161.92 426.667 256 426.667C350.08 426.667 426.666 350.08 426.666 256Z" fill="#454545"/>
</svg>
