<svg width="180" height="180" viewBox="0 0 180 180" fill="none" xmlns="http://www.w3.org/2000/svg">
<path d="M37.5005 22.501H82.5005C94.9273 22.501 105.001 32.5746 105.001 45.001V75.001H97.5005V45.001C97.5005 36.7167 90.785 30.001 82.5005 30.001H37.5005C29.2162 30.001 22.5005 36.7167 22.5005 45.001V142.501C22.5005 150.785 29.2162 157.501 37.5005 157.501H82.5005C90.785 157.501 97.5005 150.785 97.5005 142.501V112.501H105.001V142.501C105.001 154.928 94.9273 165.001 82.5005 165.001H37.5005C25.0741 165.001 15.0005 154.928 15.0005 142.501V45.001C15.0005 32.5746 25.0741 22.501 37.5005 22.501ZM60.0005 90.001H144.376L120.001 65.6256L124.983 60.001L158.732 93.751L124.982 127.501L120.001 121.876L144.376 97.501H60.0005V90.001Z" fill="#323232"/>
</svg>
