<svg width="180" height="180" viewBox="0 0 180 180" fill="none" xmlns="http://www.w3.org/2000/svg">
<path d="M90 15C48.6 15 15 48.6 15 90C15 131.4 48.6 165 90 165C131.4 165 165 131.4 165 90C165 48.6 131.4 15 90 15ZM53.025 137.1C56.25 130.35 75.9 123.75 90 123.75C104.1 123.75 123.825 130.35 126.975 137.1C116.775 145.2 103.95 150 90 150C76.05 150 63.225 145.2 53.025 137.1ZM137.7 126.225C126.975 113.175 100.95 108.75 90 108.75C79.05 108.75 53.025 113.175 42.3 126.225C34.65 116.175 30 103.65 30 90C30 56.925 56.925 30 90 30C123.075 30 150 56.925 150 90C150 103.65 145.35 116.175 137.7 126.225V126.225ZM90 45C75.45 45 63.75 56.7 63.75 71.25C63.75 85.8 75.45 97.5 90 97.5C104.55 97.5 116.25 85.8 116.25 71.25C116.25 56.7 104.55 45 90 45ZM90 82.5C83.775 82.5 78.75 77.475 78.75 71.25C78.75 65.025 83.775 60 90 60C96.225 60 101.25 65.025 101.25 71.25C101.25 77.475 96.225 82.5 90 82.5Z" fill="#323232"/>
</svg>
