<svg width="180" height="180" viewBox="0 0 180 180" fill="none" xmlns="http://www.w3.org/2000/svg">
<path d="M86.2493 104.998C117.315 104.998 142.499 116.751 142.499 131.248V149.998H29.9993V131.248C29.9993 116.751 55.1832 104.998 86.2493 104.998ZM134.999 131.248C134.999 120.893 113.173 112.498 86.2493 112.498C59.3254 112.498 37.4993 120.893 37.4993 131.248V142.498H134.999V131.248ZM86.2493 37.498C100.747 37.498 112.499 49.2505 112.499 63.7481C112.499 78.2455 100.747 89.998 86.2493 89.998C71.7518 89.998 59.9993 78.2455 59.9993 63.7481C59.9993 49.2505 71.7518 37.498 86.2493 37.498ZM86.2493 44.9981C75.894 44.9981 67.4993 53.3927 67.4993 63.7481C67.4993 74.1034 75.894 82.498 86.2493 82.498C96.6045 82.498 104.999 74.1034 104.999 63.7481C104.999 53.3927 96.6045 44.9981 86.2493 44.9981Z" fill="#323232"/>
</svg>
