<svg width="180" height="180" viewBox="0 0 180 180" fill="none" xmlns="http://www.w3.org/2000/svg">
<path d="M146.928 116.188L133.319 106.512C135.524 98.4164 135.666 89.6444 133.278 80.8566L146.928 71.2994L136.033 52.445L120.85 59.3925C114.941 53.4351 107.415 48.9257 98.6111 46.5997L97.1591 30.0006H75.3686L73.9163 46.5997C65.1122 48.9257 57.5865 53.4351 51.6779 59.3925L36.4942 52.445L25.6002 71.2994L39.2493 80.8566C36.8616 89.6444 37.004 98.4164 39.2089 106.512L25.6004 116.188L36.4942 134.947L51.6779 127.999C57.5865 133.956 65.1122 138.466 73.9163 140.791L75.3686 157.39H97.1591L98.6111 140.791C107.415 138.466 114.941 133.956 120.85 127.999L136.033 134.947L146.928 116.188ZM101.302 22.3906C103.314 22.3906 104.955 23.9745 105.048 25.9632L106.383 41.2263C112.047 43.3873 117.192 46.396 121.709 50.0651L135.586 43.5942C137.355 42.6802 139.547 43.3099 140.553 45.052L155.589 71.082C156.595 72.8241 156.045 75.0381 154.368 76.1121L141.818 84.9006C142.778 90.8856 142.745 96.8451 141.826 102.592L154.368 111.375C156.045 112.449 156.595 114.663 155.589 116.405L140.553 142.339C139.547 144.082 137.355 144.711 135.586 143.797L121.709 137.326C117.192 140.995 112.047 144.004 106.383 146.165L105.048 161.428C104.955 163.417 103.314 165.001 101.302 165.001H71.2258C69.2142 165.001 67.5726 163.417 67.4799 161.428L66.1446 146.165C60.4813 144.004 55.3363 140.995 50.8187 137.326L36.9419 143.797C35.1734 144.711 32.9808 144.082 31.9751 142.339L16.9383 116.405C15.9325 114.663 16.4834 112.449 18.1593 111.375L30.7016 102.592C29.7829 96.8451 29.7498 90.8856 30.7099 84.9006L18.1593 76.1121C16.4834 75.0381 15.9325 72.8241 16.9383 71.082L31.9751 45.052C32.9808 43.3099 35.1734 42.6802 36.9419 43.5943L50.8187 50.0651C55.3363 46.396 60.4813 43.3873 66.1446 41.2263L67.4799 25.9632C67.5726 23.9745 69.2142 22.3906 71.2258 22.3906H101.302ZM86.2638 67.5006C100.761 67.5006 112.514 79.2531 112.514 93.7506C112.514 108.248 100.761 120.001 86.2638 120.001C71.7664 120.001 60.0138 108.248 60.0138 93.7506C60.0138 79.2531 71.7664 67.5006 86.2638 67.5006ZM86.2638 75.0006C75.9086 75.0006 67.5138 83.3954 67.5138 93.7506C67.5138 104.106 75.9086 112.501 86.2638 112.501C96.6191 112.501 105.014 104.106 105.014 93.7506C105.014 83.3954 96.6191 75.0006 86.2638 75.0006Z" fill="#323232"/>
</svg>
