<svg width="180" height="180" viewBox="0 0 180 180" fill="none" xmlns="http://www.w3.org/2000/svg">
<path d="M22.5005 142.5C22.5005 150.784 29.2162 157.5 37.5005 157.5H88.2297C84.6672 153.519 82.5005 148.263 82.5005 142.5H22.5005ZM105 157.5C113.285 157.5 120.001 150.784 120.001 142.5V44.9998C120.001 39.2372 122.167 33.9805 125.73 29.9998L60.0004 30C51.7161 30 45.0004 36.7157 45.0004 44.9999L45.0005 135H90.0005V142.5C90.0005 150.784 96.716 157.5 105 157.5ZM37.5005 44.9999C37.5005 32.5735 47.5743 22.5 60.0008 22.5L142.501 22.5002C154.927 22.5003 165.001 32.5738 165.001 44.9999V59.9998H127.501V142.5C127.501 154.926 117.427 165 105 165H37.5005C25.074 165 15.0005 154.926 15.0005 142.5V135H37.5005V44.9999ZM157.501 52.4999V44.9999C157.501 36.7158 150.784 30 142.501 30C134.216 30.0001 127.501 36.7157 127.501 44.9999V52.4999L157.501 52.4999Z" fill="#323232"/>
</svg>
